<svg width="65" height="68" viewBox="0 0 65 68" fill="none" xmlns="http://www.w3.org/2000/svg">
<g filter="url(#filter0_f_212:19)">
<path d="M43.6664 9C41.9847 9 40.5264 9.33305 39.1819 9.67005C41.538 10.6773 42.9964 11.9123 43.7803 12.4729C45.5758 14.0407 46.5831 15.6129 48.3786 18.1923C48.7112 18.7529 49.272 19.5368 49.6092 20.7674C49.9465 21.8885 49.9465 22.7863 49.9465 23.6841C49.9465 24.9191 49.8325 25.9264 49.719 26.9336C49.6096 27.7219 49.6096 28.0591 49.4999 28.2825C49.4999 28.3964 49.4999 28.5058 49.3859 28.7292C49.3859 29.2898 49.3859 29.5175 49.4999 29.9642C49.4999 30.4109 49.6092 30.8619 49.6092 31.6458C49.7232 33.1042 49.7232 34.1114 49.4999 35.342V35.7931C49.2719 36.8004 49.0488 37.812 48.4882 38.7054C48.6022 38.9334 48.7115 39.0427 48.8255 39.266C49.3861 38.4821 49.8328 37.6982 50.2795 36.8048C51.6283 34.3348 52.4122 32.2064 52.9728 30.6386C53.9801 27.7219 54.5407 25.5891 54.8779 24.0213C55.6618 20.6579 55.7756 19.0901 55.4384 17.2946C55.4384 16.734 55.2151 15.7223 54.6545 14.7151C53.4195 12.4729 51.5145 11.4656 50.17 10.7912C49.2722 10.3445 46.9161 9.10949 43.6666 9H43.6664ZM19.3783 9.49488C18.0864 9.46945 16.5098 9.6131 14.7405 10.454C14.1799 10.6815 12.4982 11.4656 11.1538 13.2568C10.256 14.3779 9.58595 16.0596 9.2487 17.9646C8.91141 19.6463 8.79764 21.6696 9.47201 25.4797C9.91867 28.1686 10.3698 29.9642 11.2675 33.6604C11.3815 34.1114 12.0514 36.1304 13.5098 40.6148L13.6191 40.8382C13.8467 41.6221 14.5169 43.3038 15.9752 44.9854C16.9825 46.1066 17.8803 46.781 18.6686 46.781H18.8876C20.346 46.781 21.3576 45.6599 22.251 44.7621C22.251 44.6481 24.3838 42.0732 25.1677 41.1754C25.0537 41.0614 24.8351 41.0614 24.721 40.9478C23.3765 40.1639 22.3649 38.9333 21.581 37.5844C20.2365 35.1188 20.346 32.6533 20.5693 31.4182L20.6833 29.5176C20.2366 26.4871 20.3503 23.5747 20.9109 20.6581C21.3576 18.1925 21.9181 15.7269 23.9327 13.1474C24.6071 12.2496 25.391 11.4657 26.1749 10.9051C24.3837 10.1212 22.4787 9.67018 20.5693 9.56068C20.2057 9.53102 19.8073 9.5039 19.3781 9.495L19.3783 9.49488ZM33.4624 10.454C32.9018 10.454 32.3413 10.454 31.7807 10.5679C29.5384 11.0146 27.4101 12.2496 25.7284 14.378C24.0467 16.5108 23.6 18.5253 23.1533 20.8814C22.9253 21.7792 22.9253 22.5631 22.8118 23.4609C23.4862 22.9003 24.384 22.2259 25.7285 21.8887C26.5124 21.6654 28.5313 20.9953 30.213 22.0027C30.7735 22.3399 31.5575 23.0143 32.3414 24.9193C34.0231 29.6272 32.3456 34.4489 32.1223 34.8956C32.0083 35.3423 31.785 35.6795 31.6712 35.9029C31.4479 36.4635 31.2245 36.9145 31.0011 37.8123C30.8871 38.5962 30.7736 39.2706 30.7736 40.0545C31.1109 40.0545 31.448 40.1639 31.7808 40.3876C32.3414 40.9482 32.4553 41.7364 32.5691 42.0693C32.7924 43.8648 32.7924 46.1071 32.7924 48.3493C32.7924 50.1449 32.7924 51.8265 32.9017 52.9477C33.1293 55.5272 33.9134 57.3183 35.0345 58.2161C35.8184 58.8905 36.8257 58.8861 37.3863 59H37.6138C39.2955 59 41.9844 57.8789 42.9917 56.3111C43.5523 55.4133 43.78 54.6294 44.0034 53.5083C44.1173 52.8338 44.1127 52.501 44.2267 51.8266C44.2267 51.4893 44.3407 50.9288 44.3407 50.2587C44.3407 49.6982 44.45 49.0238 44.564 48.2355C44.6779 46.3304 45.0107 44.0925 45.1245 42.8576C45.2385 41.3992 45.9084 40.1642 46.469 39.3803C45.6851 39.2664 44.9012 38.5964 44.4545 37.4753C43.7801 36.2403 43.6662 35.9031 43.5523 35.3425C43.443 34.8958 43.2197 34.3353 42.4312 32.6536C40.7495 28.8435 40.5305 27.7224 40.5305 26.8246C40.4166 25.5896 40.303 23.9123 41.6516 22.7912C43.6662 20.9956 46.2456 21.1095 47.5901 21.5562V21.3286C47.3668 20.4352 46.9201 19.7608 46.5829 19.3141C44.9012 16.7346 44.0034 15.3902 42.4312 14.0457C41.7611 13.4851 40.0795 12.1363 37.6139 11.2429C36.4927 10.9056 35.1439 10.4546 33.4622 10.4546L33.4624 10.454ZM45.8561 23.6009C45.0415 23.5441 44.0036 23.6839 43.1058 24.4724C42.6591 24.9191 42.6591 25.8169 42.7732 26.6008C42.7732 27.1613 42.8825 27.9452 44.5643 31.7597C45.3482 33.5509 45.5716 34.1114 45.6855 34.5625C45.7994 35.0092 45.9088 35.2326 46.5833 36.4632C46.6972 36.6907 46.8066 36.9143 47.03 37.1376C47.2533 36.8003 47.3672 36.2398 47.4767 35.342L47.5906 35.009C47.8139 34.0017 47.7046 33.2135 47.7046 31.869C47.7046 31.1946 47.5906 30.7479 47.5906 30.4106C47.4767 29.8501 47.4767 29.4034 47.4767 28.7289C47.2533 28.3916 47.2533 28.2822 47.3673 28.0545C47.3673 27.8312 47.4767 27.4983 47.5906 26.8239C47.7046 25.9262 47.8182 25.1422 47.8182 24.2445C47.5906 24.1305 47.4809 24.0211 47.2576 23.9114C47.2576 23.9114 46.6664 23.6576 45.8562 23.6004L45.8561 23.6009ZM28.3254 24.0432C27.6115 23.9602 26.7926 24.192 26.2889 24.3585C25.054 24.6958 24.2744 25.4796 23.7139 25.9263C23.3766 26.2636 23.0395 26.6007 22.7022 27.0474C22.7022 27.8313 22.8115 28.6197 22.9255 29.4036V29.5175L22.7022 31.7598C22.4789 32.7671 22.3649 34.6721 23.4862 36.5771C24.0467 37.6983 24.835 38.596 25.8422 39.1566C26.5167 39.6033 27.4101 39.9405 28.4173 40.1682C28.4173 39.38 28.5313 38.4822 28.6449 37.6983C28.8682 36.5771 29.0916 36.0166 29.4288 35.3421C29.5428 35.0091 29.6521 34.786 29.8799 34.4487C29.9892 34.1114 31.5572 29.8504 30.099 25.9265C29.7663 25.0287 29.4289 24.4681 28.9779 24.2447C28.7851 24.1308 28.5575 24.0697 28.3253 24.0435L28.3254 24.0432ZM46.3217 24.0826C46.8509 27.5222 44.9988 28.0514 43.4113 27.5222L46.3217 24.0826ZM30.1822 27.2576C27.8535 29.1489 24.9376 27.2473 26.2134 24.3472L30.1822 27.2576ZM48.4881 40.2776C47.9275 41.0615 47.1436 42.0732 47.0298 43.4177C47.0298 43.641 47.0298 43.755 46.9158 43.9782C47.8136 44.2015 48.6019 44.2015 49.3858 44.0922C51.1813 43.8647 52.412 42.9667 52.6353 42.7434C53.4192 42.1828 54.4309 41.0617 54.2032 40.615C54.0938 40.3917 53.7565 40.501 51.9609 40.615C51.5142 40.615 50.1697 40.9523 49.2719 40.729H49.0487C48.8254 40.615 48.602 40.5014 48.4881 40.2779V40.2776ZM28.9779 42.5199C28.7546 42.8572 28.4217 43.0805 28.1984 43.3038C27.3006 43.8644 26.1751 44.3154 25.054 44.5388C24.0467 44.8761 23.4862 44.8761 23.4862 45.2132C23.3722 45.6599 24.4934 46.2205 25.054 46.4438C26.9634 47.2277 28.8684 46.7811 29.2056 46.6671C29.4289 46.5532 29.9896 46.3298 30.5501 45.9927C30.5501 44.7621 30.4408 43.641 30.3268 42.7432V42.6292H30.2128C29.8755 42.6292 29.4289 42.6335 28.9778 42.5199H28.9779Z" stroke="#F0FF4C" stroke-opacity="0.8" stroke-width="6" stroke-linecap="round" stroke-linejoin="round"/>
</g>
<path d="M43.6664 9C41.9847 9 40.5264 9.33305 39.1819 9.67005C41.538 10.6773 42.9964 11.9123 43.7803 12.4729C45.5758 14.0407 46.5831 15.6129 48.3786 18.1923C48.7112 18.7529 49.272 19.5368 49.6092 20.7674C49.9465 21.8885 49.9465 22.7863 49.9465 23.6841C49.9465 24.9191 49.8325 25.9264 49.719 26.9336C49.6096 27.7219 49.6096 28.0592 49.4999 28.2825C49.4999 28.3964 49.4999 28.5058 49.3859 28.7292C49.3859 29.2898 49.3859 29.5175 49.4999 29.9642C49.4999 30.4109 49.6092 30.8619 49.6092 31.6458C49.7232 33.1042 49.7232 34.1115 49.4999 35.3421V35.7932C49.2719 36.8004 49.0488 37.812 48.4882 38.7054C48.6022 38.9334 48.7115 39.0427 48.8255 39.266C49.3861 38.4821 49.8328 37.6982 50.2795 36.8048C51.6283 34.3348 52.4122 32.2064 52.9728 30.6386C53.9801 27.7219 54.5406 25.5891 54.8779 24.0213C55.6618 20.6579 55.7756 19.0901 55.4384 17.2946C55.4384 16.734 55.2151 15.7223 54.6545 14.7151C53.4195 12.4729 51.5145 11.4656 50.17 10.7912C49.2722 10.3445 46.9161 9.10949 43.6666 9H43.6664ZM19.3783 9.49488C18.0864 9.46945 16.5098 9.6131 14.7405 10.454C14.1799 10.6815 12.4982 11.4656 11.1538 13.2568C10.256 14.3779 9.58594 16.0596 9.2487 17.9646C8.9114 19.6463 8.79764 21.6696 9.472 25.4797C9.91866 28.1686 10.3698 29.9642 11.2675 33.6604C11.3815 34.1115 12.0514 36.1304 13.5098 40.6149L13.6191 40.8382C13.8467 41.6221 14.5169 43.3038 15.9752 44.9854C16.9825 46.1066 17.8803 46.781 18.6686 46.781H18.8876C20.346 46.781 21.3576 45.6599 22.251 44.7621C22.251 44.6481 24.3838 42.0732 25.1677 41.1754C25.0537 41.0614 24.8351 41.0614 24.721 40.9478C23.3765 40.1639 22.3649 38.9333 21.581 37.5844C20.2365 35.1188 20.346 32.6533 20.5693 31.4182L20.6833 29.5176C20.2366 26.4871 20.3503 23.5747 20.9109 20.6581C21.3576 18.1924 21.9181 15.7269 23.9327 13.1474C24.6071 12.2496 25.391 11.4657 26.1749 10.9051C24.3837 10.1212 22.4787 9.67018 20.5693 9.56068C20.2057 9.53102 19.8073 9.5039 19.3781 9.49501L19.3783 9.49488ZM33.4624 10.454C32.9018 10.454 32.3413 10.454 31.7807 10.5679C29.5384 11.0146 27.4101 12.2496 25.7284 14.378C24.0467 16.5108 23.6 18.5253 23.1533 20.8814C22.9253 21.7792 22.9253 22.5631 22.8118 23.4609C23.4862 22.9003 24.384 22.2259 25.7285 21.8887C26.5124 21.6654 28.5313 20.9953 30.213 22.0027C30.7735 22.3399 31.5574 23.0143 32.3414 24.9193C34.0231 29.6272 32.3456 34.4489 32.1223 34.8956C32.0083 35.3423 31.785 35.6795 31.6712 35.9029C31.4479 36.4635 31.2245 36.9145 31.0011 37.8123C30.8871 38.5962 30.7736 39.2706 30.7736 40.0546C31.1109 40.0546 31.448 40.1639 31.7808 40.3876C32.3414 40.9482 32.4553 41.7364 32.5691 42.0693C32.7924 43.8648 32.7924 46.1071 32.7924 48.3493C32.7924 50.1449 32.7924 51.8266 32.9017 52.9477C33.1293 55.5272 33.9134 57.3183 35.0345 58.2161C35.8184 58.8906 36.8257 58.8862 37.3863 59H37.6138C39.2955 59 41.9844 57.8789 42.9917 56.3111C43.5523 55.4133 43.78 54.6294 44.0034 53.5083C44.1173 52.8339 44.1127 52.501 44.2267 51.8266C44.2267 51.4893 44.3406 50.9288 44.3406 50.2587C44.3406 49.6982 44.45 49.0238 44.564 48.2355C44.6779 46.3305 45.0107 44.0925 45.1245 42.8576C45.2385 41.3992 45.9084 40.1643 46.469 39.3804C45.6851 39.2664 44.9012 38.5964 44.4545 37.4753C43.78 36.2403 43.6662 35.9031 43.5523 35.3425C43.443 34.8958 43.2197 34.3353 42.4312 32.6536C40.7495 28.8435 40.5305 27.7224 40.5305 26.8246C40.4165 25.5896 40.303 23.9123 41.6516 22.7912C43.6662 20.9956 46.2456 21.1095 47.5901 21.5562V21.3286C47.3668 20.4352 46.9201 19.7608 46.5829 19.3141C44.9012 16.7346 44.0034 15.3902 42.4312 14.0457C41.7611 13.4851 40.0795 12.1363 37.6139 11.2429C36.4927 10.9056 35.1439 10.4546 33.4622 10.4546L33.4624 10.454ZM45.8561 23.6009C45.0415 23.5441 44.0036 23.6839 43.1058 24.4724C42.6591 24.9191 42.6591 25.8169 42.7732 26.6008C42.7732 27.1613 42.8825 27.9453 44.5643 31.7597C45.3482 33.5509 45.5716 34.1115 45.6854 34.5626C45.7994 35.0092 45.9088 35.2326 46.5833 36.4632C46.6972 36.6908 46.8066 36.9143 47.03 37.1376C47.2533 36.8003 47.3672 36.2399 47.4766 35.3421L47.5906 35.009C47.8139 34.0017 47.7046 33.2135 47.7046 31.869C47.7046 31.1946 47.5906 30.7479 47.5906 30.4107C47.4766 29.8501 47.4766 29.4034 47.4766 28.7289C47.2533 28.3917 47.2533 28.2822 47.3673 28.0545C47.3673 27.8312 47.4766 27.4983 47.5906 26.8239C47.7046 25.9262 47.8182 25.1422 47.8182 24.2445C47.5906 24.1305 47.4809 24.0211 47.2576 23.9114C47.2576 23.9114 46.6664 23.6576 45.8562 23.6004L45.8561 23.6009ZM28.3254 24.0432C27.6115 23.9602 26.7926 24.192 26.2889 24.3585C25.054 24.6958 24.2744 25.4796 23.7139 25.9263C23.3766 26.2636 23.0395 26.6007 22.7022 27.0474C22.7022 27.8314 22.8115 28.6197 22.9255 29.4036V29.5176L22.7022 31.7598C22.4789 32.7671 22.3649 34.6721 23.4861 36.5771C24.0467 37.6983 24.835 38.596 25.8422 39.1566C26.5167 39.6033 27.4101 39.9405 28.4173 40.1682C28.4173 39.38 28.5313 38.4822 28.6449 37.6983C28.8682 36.5771 29.0916 36.0166 29.4288 35.3421C29.5428 35.0091 29.6521 34.786 29.8799 34.4487C29.9892 34.1115 31.5572 29.8504 30.099 25.9265C29.7663 25.0287 29.4289 24.4681 28.9778 24.2447C28.785 24.1308 28.5575 24.0697 28.3253 24.0435L28.3254 24.0432ZM46.3217 24.0826C46.8509 27.5222 44.9988 28.0514 43.4113 27.5222L46.3217 24.0826ZM30.1822 27.2576C27.8535 29.1489 24.9376 27.2472 26.2134 24.3472L30.1822 27.2576ZM48.4881 40.2776C47.9275 41.0616 47.1436 42.0732 47.0298 43.4177C47.0298 43.641 47.0298 43.755 46.9158 43.9782C47.8136 44.2015 48.6019 44.2015 49.3858 44.0922C51.1813 43.8647 52.4119 42.9667 52.6353 42.7434C53.4192 42.1828 54.4309 41.0617 54.2031 40.615C54.0938 40.3917 53.7564 40.501 51.9609 40.615C51.5142 40.615 50.1697 40.9523 49.2719 40.729H49.0487C48.8253 40.615 48.602 40.5014 48.4881 40.2779V40.2776ZM28.9779 42.5199C28.7546 42.8572 28.4217 43.0805 28.1983 43.3038C27.3006 43.8644 26.1751 44.3154 25.054 44.5388C24.0467 44.8761 23.4861 44.8761 23.4861 45.2132C23.3722 45.6599 24.4934 46.2205 25.054 46.4438C26.9634 47.2277 28.8684 46.7811 29.2056 46.6671C29.4289 46.5532 29.9896 46.3299 30.5501 45.9927C30.5501 44.7621 30.4408 43.641 30.3268 42.7432V42.6292H30.2128C29.8755 42.6292 29.4289 42.6334 28.9778 42.5199H28.9779Z" stroke="#EAFF00" stroke-width="4" stroke-linecap="round" stroke-linejoin="round"/>
<path d="M43.6664 9C41.9847 9 40.5264 9.33306 39.1819 9.67006C41.538 10.6773 42.9964 11.9123 43.7803 12.4729C45.5758 14.0407 46.5831 15.6129 48.3786 18.1923C48.7112 18.7529 49.272 19.5368 49.6092 20.7674C49.9465 21.8885 49.9465 22.7864 49.9465 23.6841C49.9465 24.9191 49.8325 25.9264 49.719 26.9336C49.6096 27.7219 49.6096 28.0592 49.4999 28.2825C49.4999 28.3964 49.4999 28.5058 49.3859 28.7292C49.3859 29.2898 49.3859 29.5175 49.4999 29.9642C49.4999 30.4109 49.6092 30.8619 49.6092 31.6458C49.7232 33.1042 49.7232 34.1115 49.4999 35.3421V35.7932C49.2719 36.8004 49.0488 37.812 48.4882 38.7054C48.6022 38.9334 48.7115 39.0427 48.8255 39.266C49.3861 38.4821 49.8328 37.6982 50.2795 36.8048C51.6283 34.3348 52.4122 32.2064 52.9728 30.6386C53.9801 27.7219 54.5406 25.5891 54.8779 24.0213C55.6618 20.6579 55.7756 19.0901 55.4384 17.2946C55.4384 16.734 55.2151 15.7224 54.6545 14.7151C53.4195 12.4729 51.5145 11.4656 50.17 10.7912C49.2722 10.3445 46.9161 9.1095 43.6666 9H43.6664ZM19.3783 9.49488C18.0864 9.46946 16.5098 9.6131 14.7405 10.454C14.1799 10.6815 12.4982 11.4656 11.1538 13.2568C10.256 14.3779 9.58594 16.0596 9.2487 17.9646C8.9114 19.6463 8.79764 21.6696 9.472 25.4797C9.91866 28.1686 10.3698 29.9642 11.2675 33.6604C11.3815 34.1115 12.0514 36.1304 13.5098 40.6149L13.6191 40.8382C13.8467 41.6221 14.5169 43.3038 15.9752 44.9854C16.9825 46.1066 17.8803 46.781 18.6686 46.781H18.8876C20.346 46.781 21.3576 45.6599 22.251 44.7621C22.251 44.6481 24.3838 42.0732 25.1677 41.1754C25.0537 41.0614 24.8351 41.0614 24.721 40.9478C23.3765 40.1639 22.3649 38.9333 21.581 37.5844C20.2365 35.1188 20.346 32.6533 20.5693 31.4182L20.6833 29.5176C20.2366 26.4871 20.3503 23.5747 20.9109 20.6581C21.3576 18.1925 21.9181 15.7269 23.9327 13.1474C24.6071 12.2497 25.391 11.4657 26.1749 10.9052C24.3837 10.1212 22.4787 9.67018 20.5693 9.5607C20.2057 9.53102 19.8073 9.50392 19.3781 9.49502L19.3783 9.49488ZM33.4624 10.454C32.9018 10.454 32.3413 10.454 31.7807 10.5679C29.5384 11.0146 27.4101 12.2497 25.7284 14.378C24.0467 16.5108 23.6 18.5253 23.1533 20.8814C22.9253 21.7792 22.9253 22.5631 22.8118 23.4609C23.4862 22.9003 24.384 22.2259 25.7285 21.8887C26.5124 21.6654 28.5313 20.9953 30.213 22.0027C30.7735 22.34 31.5574 23.0143 32.3414 24.9193C34.0231 29.6272 32.3456 34.4489 32.1223 34.8956C32.0083 35.3423 31.785 35.6795 31.6712 35.9029C31.4479 36.4635 31.2245 36.9145 31.0011 37.8123C30.8871 38.5962 30.7736 39.2706 30.7736 40.0545C31.1109 40.0545 31.448 40.1639 31.7808 40.3876C32.3414 40.9482 32.4553 41.7364 32.5691 42.0693C32.7924 43.8648 32.7924 46.1071 32.7924 48.3493C32.7924 50.1449 32.7924 51.8266 32.9017 52.9477C33.1293 55.5272 33.9134 57.3183 35.0345 58.2161C35.8184 58.8906 36.8257 58.8862 37.3863 59H37.6138C39.2955 59 41.9844 57.8789 42.9917 56.3111C43.5523 55.4133 43.78 54.6294 44.0034 53.5083C44.1173 52.8339 44.1127 52.501 44.2267 51.8266C44.2267 51.4893 44.3406 50.9288 44.3406 50.2587C44.3406 49.6982 44.45 49.0238 44.564 48.2355C44.6779 46.3305 45.0107 44.0925 45.1245 42.8576C45.2385 41.3992 45.9084 40.1643 46.469 39.3804C45.6851 39.2664 44.9012 38.5964 44.4545 37.4753C43.78 36.2403 43.6662 35.9031 43.5523 35.3425C43.443 34.8958 43.2197 34.3353 42.4312 32.6536C40.7495 28.8435 40.5305 27.7224 40.5305 26.8246C40.4165 25.5896 40.303 23.9123 41.6516 22.7912C43.6662 20.9956 46.2456 21.1095 47.5901 21.5562V21.3286C47.3668 20.4352 46.9201 19.7608 46.5829 19.3141C44.9012 16.7347 44.0034 15.3902 42.4312 14.0457C41.7611 13.4851 40.0795 12.1363 37.6139 11.2429C36.4927 10.9056 35.1439 10.4546 33.4622 10.4546L33.4624 10.454ZM45.8561 23.6009C45.0415 23.5441 44.0036 23.6839 43.1058 24.4724C42.6591 24.9191 42.6591 25.8169 42.7732 26.6008C42.7732 27.1613 42.8825 27.9453 44.5643 31.7597C45.3482 33.5509 45.5716 34.1115 45.6854 34.5626C45.7994 35.0092 45.9088 35.2326 46.5833 36.4632C46.6972 36.6908 46.8066 36.9143 47.03 37.1376C47.2533 36.8003 47.3672 36.2399 47.4766 35.3421L47.5906 35.009C47.8139 34.0017 47.7046 33.2135 47.7046 31.869C47.7046 31.1946 47.5906 30.7479 47.5906 30.4107C47.4766 29.8501 47.4766 29.4034 47.4766 28.7289C47.2533 28.3917 47.2533 28.2822 47.3673 28.0545C47.3673 27.8312 47.4766 27.4983 47.5906 26.8239C47.7046 25.9262 47.8182 25.1422 47.8182 24.2445C47.5906 24.1305 47.4809 24.0212 47.2576 23.9114C47.2576 23.9114 46.6664 23.6576 45.8562 23.6004L45.8561 23.6009ZM28.3254 24.0432C27.6115 23.9602 26.7926 24.192 26.2889 24.3585C25.054 24.6958 24.2744 25.4796 23.7139 25.9263C23.3766 26.2636 23.0395 26.6008 22.7022 27.0474C22.7022 27.8314 22.8115 28.6197 22.9255 29.4036V29.5176L22.7022 31.7598C22.4789 32.7671 22.3649 34.6721 23.4861 36.5771C24.0467 37.6983 24.835 38.596 25.8422 39.1566C26.5167 39.6033 27.4101 39.9405 28.4173 40.1682C28.4173 39.38 28.5313 38.4822 28.6449 37.6983C28.8682 36.5771 29.0916 36.0166 29.4288 35.3421C29.5428 35.0091 29.6521 34.786 29.8799 34.4487C29.9892 34.1115 31.5572 29.8504 30.099 25.9265C29.7663 25.0287 29.4289 24.4681 28.9778 24.2448C28.785 24.1308 28.5575 24.0698 28.3253 24.0435L28.3254 24.0432ZM46.3217 24.0826C46.8509 27.5222 44.9988 28.0514 43.4113 27.5222L46.3217 24.0826ZM30.1822 27.2576C27.8535 29.1489 24.9376 27.2472 26.2134 24.3472L30.1822 27.2576ZM48.4881 40.2776C47.9275 41.0616 47.1436 42.0732 47.0298 43.4177C47.0298 43.641 47.0298 43.755 46.9158 43.9782C47.8136 44.2015 48.6019 44.2015 49.3858 44.0922C51.1813 43.8647 52.4119 42.9667 52.6353 42.7434C53.4192 42.1828 54.4309 41.0617 54.2031 40.615C54.0938 40.3917 53.7564 40.501 51.9609 40.615C51.5142 40.615 50.1697 40.9523 49.2719 40.729H49.0487C48.8253 40.615 48.602 40.5014 48.4881 40.2779V40.2776ZM28.9779 42.5199C28.7546 42.8572 28.4217 43.0805 28.1983 43.3038C27.3006 43.8644 26.1751 44.3154 25.054 44.5388C24.0467 44.8761 23.4861 44.8761 23.4861 45.2132C23.3722 45.6599 24.4934 46.2205 25.054 46.4438C26.9634 47.2277 28.8684 46.7811 29.2056 46.6671C29.4289 46.5532 29.9896 46.3299 30.5501 45.9927C30.5501 44.7621 30.4408 43.641 30.3268 42.7432V42.6292H30.2128C29.8755 42.6292 29.4289 42.6334 28.9778 42.5199H28.9779Z" stroke="black" stroke-width="2" stroke-linecap="round" stroke-linejoin="round"/>
<defs>
<filter id="filter0_f_212:19" x="0.543998" y="0.56414" width="63.5089" height="66.8717" filterUnits="userSpaceOnUse" color-interpolation-filters="sRGB">
<feFlood flood-opacity="0" result="BackgroundImageFix"/>
<feBlend mode="normal" in="SourceGraphic" in2="BackgroundImageFix" result="shape"/>
<feGaussianBlur stdDeviation="2.71793" result="effect1_foregroundBlur_212:19"/>
</filter>
</defs>
</svg>
